<svg width="812" height="604" viewBox="0 0 812 604" fill="none" xmlns="http://www.w3.org/2000/svg">
<path d="M786.697 296.606C786.697 386.796 724.698 459.909 648.218 459.909C571.738 459.909 509.739 386.796 509.739 296.606C509.739 206.416 571.738 133.303 648.218 133.303C724.698 133.303 786.697 206.416 786.697 296.606Z" fill="#EAE298"/>
<path d="M446.269 102.74C516.682 123.307 589.539 178.045 574.13 261.638C561.132 332.151 431.403 316.821 443.501 363.679C455.599 410.537 811.474 421.485 811.474 421.485L361.387 556.612L264.605 181.749C264.605 181.749 372.872 81.3013 446.269 102.74Z" fill="#D9D9D9"/>
<path d="M414.974 0C414.974 0 229.243 159.441 229.243 303.721C229.243 448 307 470.5 331 479.5C449.596 523.974 615.974 519.024 615.974 519.024C615.974 519.024 120.785 710.22 46.4733 519.024C9.23256 423.207 -36.1816 279.296 46.4733 155C128.751 31.2721 414.974 0 414.974 0Z" fill="#B3B5F1"/>
</svg>
