<svg width="114" height="114" viewBox="0 0 114 114" fill="none" xmlns="http://www.w3.org/2000/svg">
<rect width="114" height="114" rx="33" fill="#462E65"/>
<path d="M34 23C34 20.7909 35.7909 19 38 19H46C48.2091 19 50 20.7909 50 23V36C50 38.2091 48.2091 40 46 40H38C35.7909 40 34 38.2091 34 36V23Z" fill="white"/>
<path d="M42 27.5H50C51.933 27.5 53.5 29.067 53.5 31V44C53.5 45.933 51.933 47.5 50 47.5H42C40.067 47.5 38.5 45.933 38.5 44V31C38.5 29.067 40.067 27.5 42 27.5Z" fill="white" stroke="#462E65"/>
<path d="M8.82137 54.6371C8.82137 52.4279 10.6122 50.6371 12.8214 50.6371H27.4999C29.7091 50.6371 31.4999 52.4279 31.4999 54.6371V76C31.4999 78.2091 29.7091 80 27.4999 80H12.8214C10.6122 80 8.82137 78.2091 8.82137 76V54.6371Z" fill="white"/>
<rect x="34" y="51" width="22.6786" height="29.3629" rx="4" fill="white"/>
<path d="M34 87C34 84.7909 35.7909 83 38 83H52.6786C54.8877 83 56.6786 84.7909 56.6786 87V108.363C56.6786 110.572 54.8877 112.363 52.6786 112.363H38C35.7909 112.363 34 110.572 34 108.363V87Z" fill="white"/>
<path d="M53 51.5H61C62.933 51.5 64.5 53.067 64.5 55V68C64.5 69.933 62.933 71.5 61 71.5H53C51.067 71.5 49.5 69.933 49.5 68V55C49.5 53.067 51.067 51.5 53 51.5ZM28 51.5H36C37.933 51.5 39.5 53.067 39.5 55V68C39.5 69.933 37.933 71.5 36 71.5H28C26.067 71.5 24.5 69.933 24.5 68V55C24.5 53.067 26.067 51.5 28 51.5Z" fill="white" stroke="#462E65"/>
<path d="M4 51.5H12C13.933 51.5 15.5 53.067 15.5 55V68C15.5 69.933 13.933 71.5 12 71.5H4C2.067 71.5 0.5 69.933 0.5 68V55C0.5 53.067 2.067 51.5 4 51.5Z" fill="white" stroke="#462E65"/>
<path d="M46 93.5H54C55.933 93.5 57.5 95.067 57.5 97V110C57.5 111.933 55.933 113.5 54 113.5H46C44.067 113.5 42.5 111.933 42.5 110V97C42.5 95.067 44.067 93.5 46 93.5Z" fill="white" stroke="#462E65"/>
<path d="M78.6678 44.8069C68.5311 58.8725 58.0432 55.4445 59.0697 43.635C60.0962 31.8255 72.5799 36.1204 72.5799 36.1204M85 53.6077C85 53.6077 74.9987 28.817 80.7911 33.6167M109.627 44.6551C109.627 30.851 97.0662 35.4724 95.8615 38.9608C94.6567 42.4492 95.2741 45.2839 95.8615 46.9178C96.4488 48.5518 106.013 53.6208 109.627 44.6835M80.6848 33.2938C96.1739 35.0193 85.8478 48.8235 85.8478 48.8235L100.304 54" stroke="white" stroke-width="4" stroke-linecap="round"/>
</svg>
