<svg width="128" height="128" viewBox="0 0 128 128" fill="none" xmlns="http://www.w3.org/2000/svg">
<g clip-path="url(#clip0_3_107)">
<rect width="128" height="128" fill="white"/>
<rect x="3.5" y="3.5" width="121" height="121" rx="7.5" stroke="#950AD7" stroke-width="7"/>
<rect x="7" y="7" width="114" height="114" rx="33" fill="#950AD7"/>
<path d="M41 30C41 27.7909 42.7909 26 45 26H53C55.2091 26 57 27.7909 57 30V43C57 45.2091 55.2091 47 53 47H45C42.7909 47 41 45.2091 41 43V30Z" fill="white"/>
<path d="M49 34.5H57C58.933 34.5 60.5 36.067 60.5 38V51C60.5 52.933 58.933 54.5 57 54.5H49C47.067 54.5 45.5 52.933 45.5 51V38C45.5 36.067 47.067 34.5 49 34.5Z" fill="white" stroke="#950AD7"/>
<path d="M65.4999 61.6371C65.4999 59.4279 67.2908 57.6371 69.4999 57.6371H84.1785C86.3877 57.6371 88.1785 59.4279 88.1785 61.6371V83C88.1785 85.2091 86.3876 87 84.1785 87H69.4999C67.2908 87 65.4999 85.2091 65.4999 83V61.6371Z" fill="white"/>
<path d="M15.8214 61.6371C15.8214 59.4279 17.6122 57.6371 19.8214 57.6371H34.4999C36.7091 57.6371 38.4999 59.4279 38.4999 61.6371V83C38.4999 85.2091 36.7091 87 34.4999 87H19.8214C17.6122 87 15.8214 85.2091 15.8214 83V61.6371Z" fill="white"/>
<rect x="41" y="58" width="22.6786" height="29.3629" rx="4" fill="white"/>
<path d="M41 94C41 91.7909 42.7909 90 45 90H59.6786C61.8877 90 63.6786 91.7909 63.6786 94V115.363C63.6786 117.572 61.8877 119.363 59.6786 119.363H45C42.7909 119.363 41 117.572 41 115.363V94Z" fill="white"/>
<path d="M60 58.5H68C69.933 58.5 71.5 60.067 71.5 62V75C71.5 76.933 69.933 78.5 68 78.5H60C58.067 78.5 56.5 76.933 56.5 75V62C56.5 60.067 58.067 58.5 60 58.5ZM35 58.5H43C44.933 58.5 46.5 60.067 46.5 62V75C46.5 76.933 44.933 78.5 43 78.5H35C33.067 78.5 31.5 76.933 31.5 75V62C31.5 60.067 33.067 58.5 35 58.5Z" fill="white" stroke="#950AD7"/>
<path d="M11 58.5H19C20.933 58.5 22.5 60.067 22.5 62V75C22.5 76.933 20.933 78.5 19 78.5H11C9.067 78.5 7.5 76.933 7.5 75V62C7.5 60.067 9.067 58.5 11 58.5Z" fill="white" stroke="#950AD7"/>
<path d="M53 100.5H61C62.933 100.5 64.5 102.067 64.5 104V117C64.5 118.933 62.933 120.5 61 120.5H53C51.067 120.5 49.5 118.933 49.5 117V104C49.5 102.067 51.067 100.5 53 100.5Z" fill="white" stroke="#950AD7"/>
<path d="M79.5799 36.1204C79.5799 36.1204 67.0962 31.8255 66.0697 43.635C65.0432 55.4445 75.5311 58.8725 85.6678 44.8069M92 53.6077C92 53.6077 81.9987 28.817 87.7911 33.6167" stroke="white" stroke-width="4" stroke-linecap="round"/>
<path d="M116.627 44.6551C116.627 30.851 104.066 35.4724 102.861 38.9608C101.657 42.4492 102.274 45.2839 102.861 46.9178C103.449 48.5518 113.013 53.6208 116.627 44.6835" stroke="white" stroke-width="4" stroke-linecap="round"/>
<path d="M87.6848 33.2938C103.174 35.0193 92.8478 48.8235 92.8478 48.8235L107.304 54" stroke="white" stroke-width="4" stroke-linecap="round"/>
<path d="M87.4377 13C83.4517 29.0366 108.56 36.3947 87.4377 18.8948" stroke="white" stroke-width="4" stroke-linecap="round"/>
</g>
<defs>
<clipPath id="clip0_3_107">
<rect width="128" height="128" fill="white"/>
</clipPath>
</defs>
</svg>
